<svg width="48" height="48" viewBox="0 0 48 48" fill="none" xmlns="http://www.w3.org/2000/svg">
<g filter="url(#filter0_i_5_230)">
<path d="M23.6667 17.3333C31.3986 17.3333 37.6667 15.0948 37.6667 12.3333C37.6667 9.57191 31.3986 7.33333 23.6667 7.33333C15.9347 7.33333 9.66666 9.57191 9.66666 12.3333C9.66666 15.0948 15.9347 17.3333 23.6667 17.3333Z" fill="#0080FF"/>
<path d="M37.6667 24C37.6667 26.7667 31.4444 29 23.6667 29C15.8889 29 9.66666 26.7667 9.66666 24" fill="#0080FF"/>
<path d="M9.66666 12.3333V35.6667C9.66666 38.4333 15.8889 40.6667 23.6667 40.6667C31.4444 40.6667 37.6667 38.4333 37.6667 35.6667V12.3333" fill="#0080FF"/>
<path d="M37.6667 12.3333C37.6667 15.0948 31.3986 17.3333 23.6667 17.3333C15.9347 17.3333 9.66666 15.0948 9.66666 12.3333M37.6667 12.3333C37.6667 9.57191 31.3986 7.33333 23.6667 7.33333C15.9347 7.33333 9.66666 9.57191 9.66666 12.3333M37.6667 12.3333V35.6667C37.6667 38.4333 31.4444 40.6667 23.6667 40.6667C15.8889 40.6667 9.66666 38.4333 9.66666 35.6667V12.3333M37.6667 24C37.6667 26.7667 31.4444 29 23.6667 29C15.8889 29 9.66666 26.7667 9.66666 24" stroke="#FAFAFA" stroke-width="4" stroke-linecap="round" stroke-linejoin="round"/>
</g>
<defs>
<filter id="filter0_i_5_230" x="5" y="4" width="37.3333" height="44" filterUnits="userSpaceOnUse" color-interpolation-filters="sRGB">
<feFlood flood-opacity="0" result="BackgroundImageFix"/>
<feBlend mode="normal" in="SourceGraphic" in2="BackgroundImageFix" result="shape"/>
<feColorMatrix in="SourceAlpha" type="matrix" values="0 0 0 0 0 0 0 0 0 0 0 0 0 0 0 0 0 0 127 0" result="hardAlpha"/>
<feOffset dy="4"/>
<feGaussianBlur stdDeviation="2"/>
<feComposite in2="hardAlpha" operator="arithmetic" k2="-1" k3="1"/>
<feColorMatrix type="matrix" values="0 0 0 0 0 0 0 0 0 0 0 0 0 0 0 0 0 0 0.25 0"/>
<feBlend mode="normal" in2="shape" result="effect1_innerShadow_5_230"/>
</filter>
</defs>
</svg>
