<svg width="32" height="32" viewBox="0 0 32 32" fill="none" xmlns="http://www.w3.org/2000/svg">
<g clip-path="url(#clip0_5_230)" filter="url(#filter0_i_5_230)">
<path d="M15.7778 11.5556C20.9324 11.5556 25.1111 10.0632 25.1111 8.22222C25.1111 6.38127 20.9324 4.88889 15.7778 4.88889C10.6231 4.88889 6.44444 6.38127 6.44444 8.22222C6.44444 10.0632 10.6231 11.5556 15.7778 11.5556Z" fill="#0080FF"/>
<path d="M25.1111 16C25.1111 17.8444 20.963 19.3333 15.7778 19.3333C10.5926 19.3333 6.44444 17.8444 6.44444 16" fill="#0080FF"/>
<path d="M6.44444 8.22222V23.7778C6.44444 25.6222 10.5926 27.1111 15.7778 27.1111C20.963 27.1111 25.1111 25.6222 25.1111 23.7778V8.22222" fill="#0080FF"/>
<path d="M25.1111 8.22222C25.1111 10.0632 20.9324 11.5556 15.7778 11.5556C10.6231 11.5556 6.44444 10.0632 6.44444 8.22222M25.1111 8.22222C25.1111 6.38127 20.9324 4.88889 15.7778 4.88889C10.6231 4.88889 6.44444 6.38127 6.44444 8.22222M25.1111 8.22222V23.7778C25.1111 25.6222 20.963 27.1111 15.7778 27.1111C10.5926 27.1111 6.44444 25.6222 6.44444 23.7778V8.22222M25.1111 16C25.1111 17.8444 20.963 19.3333 15.7778 19.3333C10.5926 19.3333 6.44444 17.8444 6.44444 16" stroke="#FAFAFA" stroke-width="4" stroke-linecap="round" stroke-linejoin="round"/>
</g>
<defs>
<filter id="filter0_i_5_230" x="3.33334" y="2.66667" width="24.8889" height="30.6667" filterUnits="userSpaceOnUse" color-interpolation-filters="sRGB">
<feFlood flood-opacity="0" result="BackgroundImageFix"/>
<feBlend mode="normal" in="SourceGraphic" in2="BackgroundImageFix" result="shape"/>
<feColorMatrix in="SourceAlpha" type="matrix" values="0 0 0 0 0 0 0 0 0 0 0 0 0 0 0 0 0 0 127 0" result="hardAlpha"/>
<feOffset dy="4"/>
<feGaussianBlur stdDeviation="2"/>
<feComposite in2="hardAlpha" operator="arithmetic" k2="-1" k3="1"/>
<feColorMatrix type="matrix" values="0 0 0 0 0 0 0 0 0 0 0 0 0 0 0 0 0 0 0.25 0"/>
<feBlend mode="normal" in2="shape" result="effect1_innerShadow_5_230"/>
</filter>
<clipPath id="clip0_5_230">
<rect width="24.8889" height="26.6667" fill="white" transform="translate(3.33334 2.66667)"/>
</clipPath>
</defs>
</svg>
